<svg width="160" height="40" viewBox="0 0 160 40" fill="none" xmlns="http://www.w3.org/2000/svg">
  <rect width="160" height="40" rx="20" fill="#0B0D11"/>
  <path d="M26.963 25.996H19.277L18.028 28.648H13.6L21.741 12.25H24.5L32.646 28.648H28.218L26.963 25.996ZM25.614 23.22L23.12 17.88L20.62 23.22H25.614Z" fill="white"/>
  <path d="M44.171 18.196V28.648H40.077V18.196H35.669V14.764H48.579V18.196H44.171Z" fill="white"/>
  <path d="M53.161 22.356C53.161 18.044 56.291 14.548 60.877 14.548C65.464 14.548 68.594 18.044 68.594 22.356C68.594 26.667 65.464 30.164 60.877 30.164C56.291 30.164 53.161 26.667 53.161 22.356ZM64.51 22.356C64.51 20.044 63.167 18.348 60.877 18.348C58.588 18.348 57.245 20.044 57.245 22.356C57.245 24.668 58.588 26.364 60.877 26.364C63.167 26.364 64.51 24.668 64.51 22.356Z" fill="white"/>
  <path d="M74.256 14.764H78.35V28.648H74.256V14.764Z" fill="white"/>
  <path d="M96.582 28.648H92.268L86.27 21.492V28.648H82.176V14.764H86.49L92.488 21.92V14.764H96.582V28.648Z" fill="white"/>
  <path d="M104.282 22.428L97.914 14.764H102.76L107.196 20.388L111.632 14.764H116.454L110.086 22.404L116.892 30.164H112.046L107.196 24.3L102.346 30.164H97.5L104.282 22.428Z" fill="white"/>
  <path d="M126.535 22.964H119.455V19.532H126.535V22.964Z" fill="white"/>
  <path d="M130.265 21.156C130.265 17.772 132.969 14.476 137.977 14.476C141.769 14.476 144.633 16.564 145.337 19.572H141.121C140.585 18.02 139.449 17.198 137.977 17.198C135.881 17.198 134.553 18.668 134.553 21.156C134.553 23.66 135.881 25.116 137.977 25.116C139.561 25.116 140.777 24.26 141.273 22.748H145.409C144.745 25.788 141.801 27.868 137.977 27.868C132.969 27.868 130.265 24.54 130.265 21.156Z" fill="white"/>
</svg>
