<svg width="18" height="18" viewBox="0 0 18 18" fill="none" xmlns="http://www.w3.org/2000/svg">
  <rect x="1" y="1" width="16" height="16" rx="3" stroke="currentColor" stroke-width="1.5"/>
  <path d="M4.6 6.6H6.9V13.2H4.6V6.6ZM4.4 4.8C4.4 3.96 5.12 3.3 6.04 3.3C6.96 3.3 7.64 3.96 7.64 4.8C7.64 5.64 6.96 6.3 6.04 6.3C5.12 6.3 4.4 5.64 4.4 4.8Z" fill="currentColor"/>
  <path d="M8.8 6.6H11V7.72C11.36 7.08 12.1 6.42 13.26 6.42C15.22 6.42 15.6 7.62 15.6 9.32V13.2H13.3V9.78C13.3 8.94 13.14 8.24 12.14 8.24C11.14 8.24 10.9 8.96 10.9 9.8V13.2H8.8V6.6Z" fill="currentColor"/>
</svg>
